<?xml version="1.0" encoding="utf-8"?>
<!-- Generator: Adobe Illustrator 16.0.0, SVG Export Plug-In . SVG Version: 6.00 Build 0)  -->
<!DOCTYPE svg PUBLIC "-//W3C//DTD SVG 1.1//EN" "http://www.w3.org/Graphics/SVG/1.1/DTD/svg11.dtd">
<svg version="1.1" id="Layer_1" xmlns="http://www.w3.org/2000/svg" xmlns:xlink="http://www.w3.org/1999/xlink" x="0px" y="0px"
	 width="512px" height="512px" viewBox="0 0 512 512" enable-background="new 0 0 512 512" xml:space="preserve">
<path fill="#BFBEBE" d="M321.2,396.3c-11.8,0-22.4-2.8-31.5-8.3c-6.9-4.1-11.5-9.6-14-16.4C273.1,364.7,272.1,349.3,272.1,325.2V224
	h96v-64h-96V48H210.2c-2.7,21.5-7.5,44.7-14.5,58.6s-14,25.8-25.6,35.7c-11.6,9.9-25.6,17.9-41.9,23.3V224h48v140.4
	c0,19,2,33.5,5.9,43.5c4,10,11.1,19.5,21.4,28.399c10.3,8.9,22.8,15.7,37.3,20.5c14.6,4.8,31.4,7.2,50.4,7.2
	c16.7,0,30.3-1.7,44.7-5.1c14.399-3.4,30.5-9.301,48.199-17.601v-65.6C363.2,389.4,342.3,396.3,321.2,396.3z"/>
</svg>
