<svg xmlns="http://www.w3.org/2000/svg" xmlns:xlink="http://www.w3.org/1999/xlink" version="1.1" id="Layer_1" x="0px" y="0px" width="100px" height="100px" viewBox="0 0 100 100" enable-background="new 0 0 100 100" xml:space="preserve">
<g>
	<path d="M100,35.019c0,10.762-5.08,20.334-12.971,26.456c-5.658,4.39-29.492,20.942-37.215,20.942l1.684-13.94H33.457   C14.972,68.477,0,53.497,0,35.019v-1.562C0,14.976,14.972,0,33.457,0h33.087C85.02,0,100,14.976,100,33.457V35.019z M24.907,29.438   c-3.052,0-5.522,2.472-5.522,5.523c0,3.048,2.47,5.527,5.522,5.527c3.049,0,5.521-2.479,5.521-5.527   C30.429,31.91,27.957,29.438,24.907,29.438z M50,29.438c-3.052,0-5.522,2.472-5.522,5.523c0,3.048,2.47,5.527,5.522,5.527   c3.05,0,5.523-2.479,5.523-5.527C55.521,31.91,53.05,29.438,50,29.438z M75.093,29.438c-3.055,0-5.521,2.472-5.521,5.523   c0,3.048,2.467,5.527,5.521,5.527c3.05,0,5.521-2.479,5.521-5.527C80.613,31.91,78.143,29.438,75.093,29.438z"/>
</g>
</svg>