<?xml version="1.0" encoding="utf-8"?>
<!-- Generator: Adobe Illustrator 16.0.0, SVG Export Plug-In . SVG Version: 6.00 Build 0)  -->
<!DOCTYPE svg PUBLIC "-//W3C//DTD SVG 1.1//EN" "http://www.w3.org/Graphics/SVG/1.1/DTD/svg11.dtd">
<svg version="1.1" id="Layer_1" xmlns="http://www.w3.org/2000/svg" xmlns:xlink="http://www.w3.org/1999/xlink" x="0px" y="0px"
	 width="512px" height="512px" viewBox="0 0 512 512" enable-background="new 0 0 512 512" xml:space="preserve">
<g>
	<path fill="#BFBEBE" d="M119.9,336.1C89.1,336.1,64,361.2,64,391.9c0,30.8,25.1,55.6,55.9,55.6c30.9,0,55.9-24.9,55.9-55.6
		C175.8,361.2,150.8,336.1,119.9,336.1z"/>
	<path fill="#BFBEBE" d="M64,192v79.9c48,0,94.1,14.199,128,48.1s48,79.9,48,128h80C320,308.1,204,192,64,192z"/>
	<path fill="#BFBEBE" d="M64,64v79.9c171,0,303.9,133,303.9,304.1H448C448,236.3,276,64,64,64z"/>
</g>
</svg>
