<?xml version="1.0" encoding="utf-8"?>
<!-- Generator: Adobe Illustrator 16.0.0, SVG Export Plug-In . SVG Version: 6.00 Build 0)  -->
<!DOCTYPE svg PUBLIC "-//W3C//DTD SVG 1.1//EN" "http://www.w3.org/Graphics/SVG/1.1/DTD/svg11.dtd">
<svg version="1.1" id="Layer_1" xmlns="http://www.w3.org/2000/svg" xmlns:xlink="http://www.w3.org/1999/xlink" x="0px" y="0px"
	 width="100px" height="87.232px" viewBox="0 0 100 87.232" enable-background="new 0 0 100 87.232" xml:space="preserve">
<path fill="#474546" d="M50,0C22.213,0,0,16.96,0,38.048c0,12.5,6.284,23.659,18.519,30.625l-4.629,18.56
	c0,0,33.447-8.562,45.37-12.062C83.105,69.438,100,56.782,100,38.049C100,16.961,77.787,0,50,0z M57.408,69.602
	c-17.426,4.857-36.11,10.209-36.11,10.209l4.629-13.92C15.729,60.085,6.482,49.858,6.482,38.049C6.482,20.476,26.844,5.568,50,5.568
	c23.156,0,44.445,14.907,44.445,32.481C94.445,53.66,74.572,66.188,57.408,69.602z"/>
</svg>
