<?xml version="1.0" encoding="utf-8"?>
<!-- Generator: Adobe Illustrator 16.0.0, SVG Export Plug-In . SVG Version: 6.00 Build 0)  -->
<!DOCTYPE svg PUBLIC "-//W3C//DTD SVG 1.1//EN" "http://www.w3.org/Graphics/SVG/1.1/DTD/svg11.dtd">
<svg version="1.1" id="Layer_1" xmlns="http://www.w3.org/2000/svg" xmlns:xlink="http://www.w3.org/1999/xlink" x="0px" y="0px"
	 width="100px" height="100px" viewBox="0 0 100 100" enable-background="new 0 0 100 100" xml:space="preserve">
<g id="Captions">
</g>
<g id="Your_Icon">
	<g>
		<path fill="#BFBEBE" d="M84.794,25.475c-0.593-0.349-1.327-0.358-1.929-0.023c-12.748,7.084-28.407,10.777-49.281,11.624
			c-1.042,0.042-1.863,0.899-1.863,1.94v20.119c0,1.042,0.821,1.897,1.863,1.94c20.874,0.847,36.533,4.54,49.281,11.624
			c0.294,0.162,0.619,0.244,0.943,0.244c0.34,0,0.682-0.09,0.984-0.269c0.594-0.35,0.957-0.985,0.957-1.674V27.149
			C85.751,26.461,85.387,25.824,84.794,25.475z"/>
		<path fill="#BFBEBE" d="M26.102,37.171c-6.564,0-11.905,5.34-11.905,11.905c0,6.564,5.34,11.904,11.905,11.904
			c1.073,0,1.942-0.869,1.942-1.941V39.113C28.044,38.04,27.175,37.171,26.102,37.171z"/>
		<path fill="#BFBEBE" d="M41.044,66.287c-0.325-0.955-1.198-1.613-2.206-1.664l-4.54-0.223c-0.803-0.036-1.582,0.318-2.073,0.961
			c-0.491,0.642-0.635,1.483-0.385,2.25l4.077,13.328c0.329,1.013,1.272,1.699,2.337,1.699h4.712c0.002-0.002,0.004-0.002,0.006,0
			c1.358,0,2.458-1.103,2.458-2.457c0-0.343-0.07-0.668-0.195-0.963L41.044,66.287z"/>
	</g>
</g>
</svg>
